<svg width="10" height="9" viewBox="0 0 10 9" fill="none" xmlns="http://www.w3.org/2000/svg">
<path d="M9.96996 8.04898L6.72372 5.35802C7.22747 4.81817 7.49997 4.15813 7.49997 3.46389C7.49997 2.63287 7.10872 1.85366 6.40122 1.26615C5.69372 0.678635 4.75123 0.355347 3.74998 0.355347C2.74874 0.355347 1.80624 0.679671 1.09875 1.26615C0.389998 1.85263 0 2.63287 0 3.46389C0 4.29387 0.391248 5.07515 1.09875 5.66162C1.80624 6.24914 2.74749 6.57242 3.74998 6.57242C4.58748 6.57242 5.38248 6.34654 6.03372 5.92999L9.27996 8.61992C9.28948 8.62781 9.30078 8.63407 9.31322 8.63835C9.32566 8.64262 9.33899 8.64482 9.35246 8.64482C9.36592 8.64482 9.37926 8.64262 9.3917 8.63835C9.40414 8.63407 9.41544 8.62781 9.42496 8.61992L9.96996 8.16918C9.97948 8.16129 9.98704 8.15192 9.99219 8.14161C9.99735 8.13129 10 8.12024 10 8.10908C10 8.09792 9.99735 8.08686 9.99219 8.07655C9.98704 8.06624 9.97948 8.05687 9.96996 8.04898ZM5.72998 5.10519C5.19998 5.5435 4.49748 5.78493 3.74998 5.78493C3.00249 5.78493 2.29999 5.5435 1.76999 5.10519C1.24124 4.66585 0.949996 4.08352 0.949996 3.46389C0.949996 2.84425 1.24124 2.26088 1.76999 1.82258C2.29999 1.38427 3.00249 1.14284 3.74998 1.14284C4.49748 1.14284 5.20123 1.38324 5.72998 1.82258C6.25872 2.26192 6.54997 2.84425 6.54997 3.46389C6.54997 4.08352 6.25872 4.66689 5.72998 5.10519Z" fill="#8B6A57"/>
</svg>
